#N canvas 638 169 1105 691 10;
#X obj 13 176 adc~;
#N canvas 0 22 450 300 (subpatch) 0;
#X array mic_in 100 float 5;
#A 0 0 0 0 0 0 0 0 0 0 0 0 0 0 0 0 0 0 0 0 0 0 0 0 0 0 0 0 0 0 0 0
0 0 0 0 0 0 0 0 0 0 0 0 0 0 0 0 0 0 0 0 0 0 0 0 0 0 0 0 0 0 0 0 0 0
0 0 0 0 0 0 0 0 0 0 0 0 0 0 0 0 0 0 0 0 0 0 0 0 0 0 0 0 0 0 0 0 0 0
0;
#X coords 0 1 99 -1 200 140 1;
#X restore 4 17 graph;
#X obj 63 177 bng 15 250 50 0 empty empty empty 17 7 0 10 -262144 -1
-1;
#X obj 13 199 *~ 10;
#X obj 63 199 metro 100;
#X obj 215 513 sound_out;
#X obj 209 36 loadbang;
#X obj 209 17 bng 15 250 50 0 empty empty empty 17 7 0 10 -262144 -1
-1;
#X obj 13 222 tabwrite~ mic_in;
#X obj 215 424 tgl 15 0 empty empty empty 17 7 0 10 -262144 -1 -1 0
1;
#X obj 215 445 moses 1;
#X obj 215 467 bng 15 250 50 0 empty empty empty 17 7 0 10 -262144
-1 -1;
#X obj 254 467 bng 15 250 50 0 empty empty empty 17 7 0 10 -262144
-1 -1;
#X text 234 412 O: off hook (on);
#X text 234 423 X: on hook (off);
#X text 232 466 on;
#X text 272 465 off;
#X obj 215 491 delay 100;
#X msg 630 165 \; pd audio-dialog 2 0 0 0 1 0 0 0 2 0 0 0 1 0 0 0 44100
25 -1 64;
#X obj 556 103 delay 2000;
#X msg 556 165 \; pd dsp 1;
#X text 634 143 bring audio in/out online for external USB source;
#X obj 215 224 netreceive -u -b;
#X msg 215 196 listen 6448;
#X obj 215 252 oscparse;
#X obj 312 327 route dialed;
#X obj 214 279 route list;
#X obj 215 327 route handset;
#X floatatom 215 349 5 0 0 0 - - -, f 5;
#X floatatom 312 349 5 0 0 0 - - -, f 5;
#X obj 411 511 sel 0 1 2 3 4 5 6 7 8 9;
#X obj 411 483 spigot;
#X obj 330 600 sound_in;
#X msg 400 103 \; num_sound_files 0 \; max_num_sound_files 20 \; reset
0 \; initial_filter 27 \;;
#X text 483 460 only dial when off hook;
#X obj 330 578 bng 15 250 50 0 empty empty empty 17 7 0 10 -262144
-1 -1;
#X floatatom 458 484 5 0 0 0 - - -, f 5;
#X obj 445 459 == 0;
#X msg 110 313 0;
#X msg 156 314 1;
#X msg 442 312 0;
#X text 474 315 dail 0;
#X text 109 296 0 = off hook;
#X text 560 507 don't use #9 pr #8 \, sometimes dialing 0 gives a 9
so lets count the two as a start record intention from the user;
#X connect 0 0 3 0;
#X connect 2 0 4 0;
#X connect 3 0 8 0;
#X connect 4 0 8 0;
#X connect 6 0 33 0;
#X connect 6 0 19 0;
#X connect 6 0 23 0;
#X connect 9 0 10 0;
#X connect 9 0 37 0;
#X connect 10 0 11 0;
#X connect 10 1 12 0;
#X connect 11 0 17 0;
#X connect 12 0 5 1;
#X connect 12 0 32 1;
#X connect 17 0 5 0;
#X connect 19 0 20 0;
#X connect 19 0 18 0;
#X connect 22 0 24 0;
#X connect 23 0 22 0;
#X connect 24 0 26 0;
#X connect 25 0 29 0;
#X connect 26 0 27 0;
#X connect 26 0 25 0;
#X connect 27 0 28 0;
#X connect 28 0 9 0;
#X connect 29 0 31 0;
#X connect 30 0 35 0;
#X connect 30 9 35 0;
#X connect 30 10 35 0;
#X connect 31 0 30 0;
#X connect 35 0 32 0;
#X connect 37 0 31 1;
#X connect 37 0 36 0;
#X connect 38 0 28 0;
#X connect 39 0 28 0;
#X connect 40 0 29 0;
