#N canvas 0 0 450 300 10;
#X obj 64 189 bp~;
#X floatatom 71 150 5 0 0 0 - - -;
#X floatatom 108 173 5 0 0 0 - - -;
#X obj 128 69 metro 50;
#X msg 128 32 1;
#X obj 71 86 snapshot~;
#X obj 70 51 osc~ 0.025;
#X obj 71 128 + 1200;
#X obj 71 107 * 500;
#X obj 160 32 r start_metro;
#X obj 108 151 r initial_filter;
#X obj 63 222 outlet~;
#X obj 64 12 inlet~;
#X connect 0 0 11 0;
#X connect 1 0 0 1;
#X connect 2 0 0 2;
#X connect 3 0 5 0;
#X connect 4 0 3 0;
#X connect 5 0 8 0;
#X connect 6 0 5 0;
#X connect 7 0 1 0;
#X connect 8 0 7 0;
#X connect 9 0 3 0;
#X connect 10 0 2 0;
#X connect 12 0 0 0;
