#N canvas 664 44 644 645 10;
#X obj 42 26 inlet;
#X obj 141 27 inlet;
#X obj 108 128 random;
#X obj 108 218 soundfiler;
#X obj 42 81 bng 15 250 50 0 empty empty empty 17 7 0 10 -262144 -1
-1;
#X floatatom 176 44 5 0 0 0 - - -;
#X floatatom 154 438 5 0 0 0 - - -;
#X obj 108 235 bng 15 250 50 0 empty empty empty 17 7 0 10 -262144
-1 -1;
#X msg 42 493 stop;
#X obj 108 296 delay 100;
#X msg 182 511 bang;
#X msg 154 480 set \$1;
#X symbolatom 221 475 10 0 0 0 - - -;
#X obj 108 510 tabplay~;
#X obj 154 458 makefilename array%d;
#X obj 94 313 bng 15 250 50 0 empty empty empty 17 7 0 10 -262144 -1
-1;
#X obj 108 153 + 1;
#X obj 108 107 delay 100;
#X obj 108 537 outlet~;
#X obj 234 27 inlet;
#X obj 153 150 f \$1;
#X text 151 134 first argument;
#X floatatom 66 170 5 0 0 0 - - -;
#X obj 42 60 spigot;
#X obj 472 44 r currently_open_file;
#X floatatom 344 159 5 0 0 0 - - -;
#X floatatom 513 61 5 0 0 0 - - -;
#X obj 325 91 sel 0 1;
#X obj 344 135 f;
#X obj 325 113 bng 15 250 50 0 empty empty empty 17 7 0 10 -262144
-1 -1;
#X obj 344 113 bng 15 250 50 0 empty empty empty 17 7 0 10 -262144
-1 -1;
#X obj 325 68 expr if($f1 == $f2 \, 0 \, 1);
#X floatatom 452 85 5 0 0 0 - - -;
#X obj 325 44 t f f;
#X obj 181 536 f;
#X obj 213 536 + 1;
#X floatatom 179 567 5 0 0 0 - - -;
#X obj 179 587 % 3;
#X obj 180 611 sel 2;
#X floatatom 232 612 5 0 0 0 - - -;
#X msg 226 514 0;
#X obj 108 175 pack f f;
#X msg 108 197 read -resize \$1.wav array\$2;
#X floatatom 232 261 5 0 0 0 - - -;
#X symbolatom 229 294 10 0 0 0 - - -;
#X obj 113 376 spigot;
#X connect 0 0 23 0;
#X connect 1 0 5 0;
#X connect 1 0 2 1;
#X connect 2 0 16 0;
#X connect 3 0 7 0;
#X connect 3 0 43 0;
#X connect 3 0 44 0;
#X connect 4 0 17 0;
#X connect 4 0 8 0;
#X connect 4 0 20 0;
#X connect 4 0 40 0;
#X connect 5 0 23 1;
#X connect 6 0 14 0;
#X connect 7 0 9 0;
#X connect 8 0 13 0;
#X connect 9 0 15 0;
#X connect 9 0 45 0;
#X connect 10 0 13 0;
#X connect 10 0 34 0;
#X connect 11 0 13 0;
#X connect 13 0 18 0;
#X connect 13 1 10 0;
#X connect 14 0 11 0;
#X connect 14 0 12 0;
#X connect 16 0 22 0;
#X connect 16 0 33 0;
#X connect 17 0 2 0;
#X connect 19 0 13 0;
#X connect 20 0 6 0;
#X connect 20 0 41 1;
#X connect 23 0 4 0;
#X connect 24 0 26 0;
#X connect 24 0 31 1;
#X connect 25 0 41 0;
#X connect 27 0 29 0;
#X connect 27 1 30 0;
#X connect 28 0 25 0;
#X connect 29 0 2 0;
#X connect 30 0 28 0;
#X connect 31 0 27 0;
#X connect 31 0 32 0;
#X connect 33 0 31 0;
#X connect 33 1 28 1;
#X connect 34 0 35 0;
#X connect 34 0 36 0;
#X connect 35 0 34 1;
#X connect 36 0 37 0;
#X connect 37 0 38 0;
#X connect 37 0 39 0;
#X connect 38 0 4 0;
#X connect 40 0 34 1;
#X connect 41 0 42 0;
#X connect 42 0 3 0;
#X connect 43 0 45 1;
#X connect 45 0 13 0;
