#N canvas 123 111 450 528 10;
#X text 85 3 base frequency;
#X obj 185 204 *~;
#X obj 266 244 +~;
#X obj 88 179 *~ 0.003;
#X obj 87 22 inlet~;
#X obj 177 24 inlet~;
#X text 179 3 sound stream 1;
#X obj 211 316 outlet~;
#X obj 261 204 *~ 0.5;
#X obj 162 96 *~ 1;
#X obj 103 98 *~ 0.06;
#X obj 186 228 *~ 7;
#X obj 252 273 +~;
#X obj 203 96 *~ 1.5;
#X connect 1 0 11 0;
#X connect 4 0 3 0;
#X connect 4 0 10 0;
#X connect 5 0 9 0;
#X connect 5 0 13 0;
#X connect 9 0 1 0;
#X connect 10 0 1 1;
#X connect 11 0 12 0;
#X connect 12 0 7 0;
#X connect 13 0 12 1;
