#N canvas 35 87 558 449 10;
#X obj 41 14 inlet;
#X obj 41 348 writesf~ 2;
#X obj 93 132 f;
#X obj 119 132 + 1;
#X floatatom 93 224 5 0 0 0 - - -;
#X obj 41 36 bng 15 250 50 0 empty empty empty 17 7 0 10 -262144 -1
-1;
#X obj 83 35 bng 15 250 50 0 empty empty empty 17 7 0 10 -262144 -1
-1;
#X msg 83 53 stop;
#X obj 97 287 adc~;
#X obj 97 317 *~ 10;
#X obj 93 202 + 1;
#X obj 93 172 % \$1;
#X obj 114 152 r max_num_sound_files;
#X obj 130 216 s num_sound_files;
#X floatatom 242 216 5 0 0 0 - - -;
#X msg 119 109 0;
#X obj 83 14 inlet;
#X text 124 14 on hook;
#X text -16 15 off hook;
#X obj 230 171 r num_sound_files;
#X obj 130 189 expr if($f2 < ($f3 - 1) \, $f1 \, $f3);
#X obj 339 171 r max_num_sound_files;
#X obj 93 241 s currently_open_file;
#X msg 93 261 open \$1.wav \, start;
#X obj 108 88 r reset;
#X connect 0 0 5 0;
#X connect 2 0 3 0;
#X connect 2 0 11 0;
#X connect 3 0 2 1;
#X connect 4 0 23 0;
#X connect 4 0 22 0;
#X connect 5 0 2 0;
#X connect 6 0 7 0;
#X connect 7 0 1 0;
#X connect 8 0 9 0;
#X connect 9 0 1 0;
#X connect 9 0 1 1;
#X connect 10 0 4 0;
#X connect 11 0 10 0;
#X connect 11 0 20 0;
#X connect 12 0 11 1;
#X connect 15 0 2 1;
#X connect 16 0 6 0;
#X connect 19 0 20 1;
#X connect 20 0 13 0;
#X connect 20 0 14 0;
#X connect 21 0 20 2;
#X connect 23 0 1 0;
#X connect 24 0 2 1;
