#N canvas 445 117 662 542 10;
#X obj 56 -13 inlet;
#X obj 58 45 bng 15 250 50 0 empty empty empty 17 7 0 10 -262144 -1
-1;
#X msg 204 54 10;
#X msg 243 53 \$1;
#X floatatom 282 53 5 0 0 0 - - -;
#X obj 218 27 r num_sound_files;
#X obj 115 412 dac~ 1 2;
#X msg 143 44 stop;
#X obj 360 -14 table array1;
#X obj 360 6 table array2;
#X obj 360 26 table array3;
#X obj 360 47 table array4;
#X obj 360 66 table array5;
#X obj 360 86 table array6;
#X obj 362 107 table array7;
#X obj 362 126 table array8;
#X obj 362 147 table array9;
#X obj 362 168 table array10;
#X obj 143 -10 inlet;
#X text 182 -11 on hook;
#X text 69 2 off hook;
#X obj 158 89 pick_and_play 2;
#X obj 3 181 +~;
#X obj 126 245 osc~;
#X floatatom -18 111 5 0 0 0 - - -;
#X floatatom 20 111 5 0 0 0 - - -;
#X msg -18 88 350;
#X msg 20 88 440;
#X obj -18 134 osc~;
#X obj 20 134 osc~;
#X obj 128 390 *~;
#X msg 146 360 0;
#X obj 56 89 pick_and_play 1;
#X obj 127 223 +~;
#X obj 307 245 bp~;
#X obj 143 197 *~;
#X obj 41 207 *~;
#X obj 158 155 *~ 20;
#X obj 57 159 *~ 20;
#X obj 142 307 +~;
#X obj 182 197 +~;
#X obj 128 336 +~;
#X obj 4 242 *~ 0.003;
#X obj 127 267 *~ 1;
#X msg 153 336 0.75;
#X obj 196 155 *~ 0.07;
#X obj 94 159 *~ 0.07;
#X obj 2 60 bng 15 250 50 0 empty empty empty 17 7 0 10 -262144 -1
-1;
#X connect 0 0 1 0;
#X connect 1 0 21 0;
#X connect 1 0 44 0;
#X connect 1 0 32 0;
#X connect 1 0 47 0;
#X connect 2 0 21 1;
#X connect 2 0 32 1;
#X connect 3 0 21 1;
#X connect 3 0 32 1;
#X connect 5 0 3 0;
#X connect 5 0 4 0;
#X connect 7 0 21 2;
#X connect 7 0 32 2;
#X connect 7 0 31 0;
#X connect 18 0 7 0;
#X connect 21 0 37 0;
#X connect 21 0 45 0;
#X connect 22 0 35 0;
#X connect 22 0 36 0;
#X connect 22 0 42 0;
#X connect 23 0 43 0;
#X connect 24 0 28 0;
#X connect 25 0 29 0;
#X connect 26 0 24 0;
#X connect 27 0 25 0;
#X connect 28 0 22 0;
#X connect 29 0 22 1;
#X connect 30 0 6 0;
#X connect 30 0 6 1;
#X connect 31 0 30 1;
#X connect 32 0 38 0;
#X connect 32 0 46 0;
#X connect 33 0 23 0;
#X connect 35 0 33 1;
#X connect 36 0 33 0;
#X connect 37 0 35 1;
#X connect 38 0 36 1;
#X connect 39 0 41 1;
#X connect 40 0 39 1;
#X connect 41 0 30 0;
#X connect 42 0 39 0;
#X connect 43 0 41 0;
#X connect 44 0 30 1;
#X connect 45 0 40 1;
#X connect 46 0 40 0;
#X connect 47 0 26 0;
#X connect 47 0 27 0;
