#N canvas 593 101 824 628 10;
#X obj 56 -13 inlet;
#X obj 56 45 bng 15 250 50 0 empty empty empty 17 7 0 10 -262144 -1
-1;
#X msg 204 54 10;
#X msg 243 53 \$1;
#X floatatom 282 53 5 0 0 0 - - -, f 5;
#X obj 218 27 r num_sound_files;
#X obj 99 403 dac~ 1 2;
#X msg 146 44 stop;
#X obj 510 -14 table array1;
#X obj 510 6 table array2;
#X obj 510 26 table array3;
#X obj 510 47 table array4;
#X obj 510 66 table array5;
#X obj 510 86 table array6;
#X obj 512 107 table array7;
#X obj 512 126 table array8;
#X obj 512 147 table array9;
#X obj 512 168 table array10;
#X obj 146 -10 inlet;
#X text 185 -11 on hook;
#X text 69 2 off hook;
#X obj 158 89 pick_and_play 2;
#X obj -17 161 +~;
#X floatatom -18 111 5 0 0 0 - - -, f 5;
#X floatatom 20 111 5 0 0 0 - - -, f 5;
#X msg -18 88 350;
#X msg 20 88 440;
#X obj -18 134 osc~;
#X obj 20 134 osc~;
#X obj 112 381 *~;
#X msg 145 351 0;
#X obj 56 89 pick_and_play 1;
#X obj 2 60 bng 15 250 50 0 empty empty empty 17 7 0 10 -262144 -1
-1;
#X obj -16 227 vcf~ 1;
#X obj 1 183 noise~;
#X obj -16 365 +~;
#X obj 142 174 +~;
#X obj 140 256 +~;
#X obj -17 250 *~ 0.8;
#X obj 262 89 pick_and_play 3;
#X obj 157 124 +~;
#X obj 0 205 *~ 13;
#X obj 141 199 *~ 0.6;
#X obj 156 229 *~ 0.02;
#X obj 157 148 *~ 0.4;
#X obj -1 289 ring_modulate_and_mix~;
#X obj -2 316 moving_bandpass~;
#X msg 102 351 4;
#X connect 0 0 1 0;
#X connect 1 0 21 0;
#X connect 1 0 47 0;
#X connect 1 0 31 0;
#X connect 1 0 32 0;
#X connect 1 0 39 0;
#X connect 2 0 21 1;
#X connect 2 0 31 1;
#X connect 3 0 21 1;
#X connect 3 0 31 1;
#X connect 3 0 39 1;
#X connect 5 0 3 0;
#X connect 5 0 4 0;
#X connect 7 0 21 2;
#X connect 7 0 31 2;
#X connect 7 0 30 0;
#X connect 7 0 39 2;
#X connect 18 0 7 0;
#X connect 21 0 40 0;
#X connect 22 0 33 0;
#X connect 22 0 45 0;
#X connect 23 0 27 0;
#X connect 24 0 28 0;
#X connect 25 0 23 0;
#X connect 26 0 24 0;
#X connect 27 0 22 0;
#X connect 28 0 22 1;
#X connect 29 0 6 0;
#X connect 29 0 6 1;
#X connect 30 0 29 1;
#X connect 31 0 36 0;
#X connect 32 0 25 0;
#X connect 32 0 26 0;
#X connect 33 0 38 0;
#X connect 34 0 41 0;
#X connect 34 0 43 0;
#X connect 35 0 29 0;
#X connect 36 0 42 0;
#X connect 37 0 45 1;
#X connect 38 0 35 0;
#X connect 39 0 40 1;
#X connect 40 0 44 0;
#X connect 41 0 33 1;
#X connect 42 0 37 0;
#X connect 43 0 37 1;
#X connect 44 0 36 1;
#X connect 45 0 46 0;
#X connect 46 0 35 1;
#X connect 47 0 29 1;
