#N canvas 583 186 662 542 10;
#X obj 56 -13 inlet;
#X obj 56 45 bng 15 250 50 0 empty empty empty 17 7 0 10 -262144 -1
-1;
#X obj 99 403 dac~ 1 2;
#X msg 146 44 stop;
#X obj 146 -10 inlet;
#X obj -17 161 +~;
#X floatatom -18 111 5 0 0 0 - - -;
#X floatatom 20 111 5 0 0 0 - - -;
#X msg -18 88 350;
#X msg 20 88 440;
#X obj -18 134 osc~;
#X obj 20 134 osc~;
#X obj 112 381 *~;
#X msg 145 351 0;
#X obj 2 60 bng 15 250 50 0 empty empty empty 17 7 0 10 -262144 -1
-1;
#X obj -16 227 vcf~ 1;
#X obj 1 183 noise~;
#X obj -16 365 +~;
#X obj -17 250 *~ 0.8;
#X obj 0 205 *~ 13;
#X msg 102 351 0.7;
#X obj -1 289 ring_modulate_and_mix~;
#X obj -2 316 moving_bandpass~;
#X obj 289 -2 inlet;
#X text 327 -2 filename;
#X obj 299 80 soundfiler;
#X obj 299 97 bng 15 250 50 0 empty empty empty 17 7 0 10 -262144 -1
-1;
#X msg 233 188 stop;
#X msg 373 213 bang;
#X obj 299 212 tabplay~;
#X obj 285 175 bng 15 250 50 0 empty empty empty 17 7 0 10 -262144
-1 -1;
#X obj 672 224 r currently_open_file;
#X floatatom 713 241 5 0 0 0 - - -;
#X floatatom 652 265 5 0 0 0 - - -;
#X obj 299 158 delay 200;
#X text 185 -11 stop playing;
#X text 69 2 start playing;
#X msg 345 182 set special_option_\$1;
#X msg 300 64 read -resize \$1.wav special_option_\$1;
#X obj 150 275 +~;
#X obj 166 248 *~ 0.002;
#X obj 141 229 *~ 0.1;
#X connect 0 0 1 0;
#X connect 1 0 20 0;
#X connect 1 0 14 0;
#X connect 1 0 27 0;
#X connect 3 0 13 0;
#X connect 3 0 29 0;
#X connect 4 0 3 0;
#X connect 5 0 15 0;
#X connect 5 0 21 0;
#X connect 6 0 10 0;
#X connect 7 0 11 0;
#X connect 8 0 6 0;
#X connect 9 0 7 0;
#X connect 10 0 5 0;
#X connect 11 0 5 1;
#X connect 12 0 2 0;
#X connect 12 0 2 1;
#X connect 13 0 12 1;
#X connect 14 0 8 0;
#X connect 14 0 9 0;
#X connect 15 0 18 0;
#X connect 16 0 19 0;
#X connect 16 0 40 0;
#X connect 17 0 12 0;
#X connect 18 0 17 0;
#X connect 19 0 15 1;
#X connect 20 0 12 1;
#X connect 21 0 22 0;
#X connect 22 0 17 1;
#X connect 23 0 38 0;
#X connect 23 0 37 0;
#X connect 25 0 26 0;
#X connect 26 0 34 0;
#X connect 27 0 29 0;
#X connect 28 0 29 0;
#X connect 29 0 41 0;
#X connect 29 1 28 0;
#X connect 31 0 32 0;
#X connect 34 0 29 0;
#X connect 34 0 30 0;
#X connect 37 0 29 0;
#X connect 38 0 25 0;
#X connect 39 0 21 1;
#X connect 40 0 39 1;
#X connect 41 0 39 0;
