#N canvas 1160 72 928 635 10;
#X obj 40 306 osc~;
#X obj 47 422 dac~;
#X floatatom 40 285 5 0 0 0 - - -, f 5;
#X obj 38 182 delay 50;
#X msg 38 243 500;
#X obj 37 37 loadbang;
#X obj 37 59 delay 2000;
#X msg 194 110 \; pd audio-dialog 3 0 0 0 0 0 0 0 1 0 0 0 1 0 0 0 41000
25 0 64;
#X msg 96 111 \; pd dsp 1;
#X connect 0 0 1 1;
#X connect 0 0 1 0;
#X connect 2 0 0 0;
#X connect 3 0 4 0;
#X connect 4 0 2 0;
#X connect 5 0 6 0;
#X connect 6 0 8 0;
#X connect 6 0 7 0;
#X connect 6 0 3 0;
