#N canvas 797 446 1137 692 10;
#X obj 53 193 oscparse;
#X msg 402 142 \; pd audio-dialog 2 0 0 0 1 0 0 0 2 0 0 0 1 0 0 0 44100
25 -1 64;
#X msg 328 142 \; pd dsp 1;
#X text 406 120 bring audio in/out online for external USB source;
#X obj 51 23 loadbang;
#X obj 53 215 route list;
#X floatatom 53 293 5 0 0 0 - - -, f 5;
#X floatatom 349 283 5 0 0 0 - - -, f 5;
#X obj 54 237 route handset dialed;
#X obj 215 484 osc~;
#X obj 141 617 dac~;
#X floatatom 215 463 5 0 0 0 - - -, f 5;
#X obj 99 360 tgl 15 0 empty empty empty 17 7 0 10 -262144 -1 -1 0
1;
#X obj 99 381 moses 1;
#X obj 99 403 bng 15 250 50 0 empty empty empty 17 7 0 10 -262144 -1
-1;
#X obj 138 403 bng 15 250 50 0 empty empty empty 17 7 0 10 -262144
-1 -1;
#X text 133 348 O: off hook (on);
#X text 133 359 X: on hook (off);
#X text 116 402 on;
#X text 156 401 off;
#X obj 144 554 *~;
#X msg 99 423 1;
#X msg 138 423 0;
#X obj 349 302 * 40;
#X obj 349 324 + 220;
#X obj 328 80 delay 5000;
#X obj 297 237 print;
#X obj 53 171 netreceive -u -b 6448;
#X msg 53 123 listen 6448;
#X connect 0 0 5 0;
#X connect 4 0 25 0;
#X connect 5 0 8 0;
#X connect 5 0 26 0;
#X connect 6 0 12 0;
#X connect 7 0 23 0;
#X connect 8 0 6 0;
#X connect 8 1 7 0;
#X connect 9 0 20 0;
#X connect 11 0 9 0;
#X connect 12 0 13 0;
#X connect 13 0 14 0;
#X connect 13 1 15 0;
#X connect 14 0 21 0;
#X connect 15 0 22 0;
#X connect 20 0 10 0;
#X connect 20 0 10 1;
#X connect 21 0 20 1;
#X connect 22 0 20 1;
#X connect 23 0 24 0;
#X connect 24 0 11 0;
#X connect 25 0 2 0;
#X connect 25 0 1 0;
#X connect 25 0 28 0;
#X connect 27 0 0 0;
#X connect 28 0 26 0;
#X connect 28 0 27 0;
